<?xml version="1.0" encoding="UTF-8"?>
<svg xmlns="http://www.w3.org/2000/svg" viewBox="0 0 1440 1440" fill="none">
  <rect width="1440" height="1440" fill="white" rx="300"/>
  <g transform="translate(0, 85)">
    <path fill="#201E1E" d="M94.77 773.58c10.99,0.18 52.37,-7.05 65.79,-9.17 6.74,-1.07 15.63,-3.04 22.49,-3.37 1.48,-4.67 0.11,-184.92 -0.39,-204.78 -0.27,-10.85 -0.16,-22.41 -0.72,-33.34 -0.51,-9.81 -1.23,-24.32 -0.65,-34.19l9.23 24.42c1.12,3.01 2.01,5.7 3.23,8.52 2.43,5.63 4.04,10 6.5,15.83l30.67 70.94c1.22,2.87 2.49,5.46 3.7,8.09l13.99 31.25c12.63,28.68 31.19,66.24 42.31,93.35 4.68,0.49 80.52,-15.84 90.5,-18.32l-0.74 -367.69c-14.98,-1.82 -29.19,-5.45 -43.81,-7.47 -12.17,-1.68 -35.52,-7.63 -44.22,-8.04 0.27,39.2 0.1,78.46 0.24,117.67 0.07,19.19 -0.47,39.73 0.46,58.76 0.44,9.12 0.77,19.06 0.88,28.43 0.1,7.91 1.54,21.32 0.99,27.91 -1.8,-1.92 -6.99,-16.82 -8.65,-20.92l-26.78 -63.55c-15.22,-33.68 -30.1,-71.77 -44.36,-106.63l-26.25 -64.15c-1.61,-2.63 -4.69,-2.38 -11.18,-3.89 -18.89,-4.4 -40.3,-10.59 -59.24,-16.26 -5.06,-1.52 -18.9,-6.42 -23.95,-6.9l-0.04 483.5zm186.45 113.49c-15.44,0.33 -29.97,1.33 -45.36,1.74 -18.33,0.49 -14.31,-1.58 -15.41,7.37 -0.81,6.52 -2.39,12.52 -5.23,17.71 -10.74,19.62 -44.52,26.86 -55.15,-3.84 -2.98,-8.62 -3.93,-32.73 -2.3,-43.29 2.16,-14.07 3.9,-24.77 12.51,-33.21 7.07,-6.93 19.66,-14.38 34.42,-10.07 12.26,3.58 15.68,15 15.8,29.98 9.56,-3.02 20.92,-5.15 30.86,-7.65 10.34,-2.59 19.78,-4.98 29.7,-7.65 -0.27,-10.73 -5.4,-24.37 -11.14,-32.11 -21.08,-28.39 -71.54,-21.71 -101.04,-13.13 -16.47,4.79 -30.17,11.59 -43.02,21.78 -21.22,16.82 -30.75,44.24 -31.17,75.25 -0.4,29.57 6.36,49.86 22.81,63.29 16.37,13.36 44.08,16.23 70.22,11.78 26.92,-4.57 43.61,-10.35 62.49,-23.35 17.35,-11.94 29.98,-32.3 31.01,-54.6zm539.51 -181.22c4.81,-0.24 30.61,-6.46 38.1,-7.81l12.46 -2.79 0.1 -51.99c-7.73,0.55 -15.08,2.76 -22.37,4.27l-64.02 14.05c-14.08,3.24 -29.02,6.07 -42.6,9.83 -6.57,1.82 -14.45,3.43 -21.34,4.85 -3.03,0.63 -7.37,1.54 -10.74,2.5 -1.91,0.54 -3.08,0.77 -5.47,1.22 -2.19,0.41 -2.65,0.36 -4.08,1.71 -1.36,2.27 -0.79,41.99 -0.42,48.28l57.05 -11.48c0.88,5.57 0.18,17.64 0.19,23.96 0.04,20.52 -0.83,163.95 0.36,168.1l62.78 0.34 0 -205.04z"/>
  </g>
</svg>
