<?xml version="1.0" encoding="UTF-8"?>
<!DOCTYPE svg PUBLIC "-//W3C//DTD SVG 1.1//EN" "http://www.w3.org/Graphics/SVG/1.1/DTD/svg11.dtd">
<!-- Creator: CorelDRAW -->
<svg xmlns="http://www.w3.org/2000/svg" xml:space="preserve" width="14.3932mm" height="12.6998mm" version="1.1" style="shape-rendering:geometricPrecision; text-rendering:geometricPrecision; image-rendering:optimizeQuality; fill-rule:evenodd; clip-rule:evenodd"
viewBox="0 0 1439.32 1269.98"
 xmlns:xlink="http://www.w3.org/1999/xlink"
 xmlns:xodm="http://www.corel.com/coreldraw/odm/2003">
 <defs>
  <style type="text/css">
   <![CDATA[
    .fil0 {fill:#201E1E}
   ]]>
  </style>
 </defs>
 <g id="Camada_x0020_1">
  <metadata id="CorelCorpID_0Corel-Layer"/>
  <path class="fil0" d="M94.77 773.58c10.99,0.18 52.37,-7.05 65.79,-9.17 6.74,-1.07 15.63,-3.04 22.49,-3.37 1.48,-4.67 0.11,-184.92 -0.39,-204.78 -0.27,-10.85 -0.16,-22.41 -0.72,-33.34 -0.51,-9.81 -1.23,-24.32 -0.65,-34.19l9.23 24.42c1.12,3.01 2.01,5.7 3.23,8.52 2.43,5.63 4.04,10 6.5,15.83l30.67 70.94c1.22,2.87 2.49,5.46 3.7,8.09l13.99 31.25c12.63,28.68 31.19,66.24 42.31,93.35 4.68,0.49 80.52,-15.84 90.5,-18.32l-0.74 -367.69c-14.98,-1.82 -29.19,-5.45 -43.81,-7.47 -12.17,-1.68 -35.52,-7.63 -44.22,-8.04 0.27,39.2 0.1,78.46 0.24,117.67 0.07,19.19 -0.47,39.73 0.46,58.76 0.44,9.12 0.77,19.06 0.88,28.43 0.1,7.91 1.54,21.32 0.99,27.91 -1.8,-1.92 -6.99,-16.82 -8.65,-20.92l-26.78 -63.55c-15.22,-33.68 -30.1,-71.77 -44.36,-106.63l-26.25 -64.15c-1.61,-2.63 -4.69,-2.38 -11.18,-3.89 -18.89,-4.4 -40.3,-10.59 -59.24,-16.26 -5.06,-1.52 -18.9,-6.42 -23.95,-6.9l-0.04 483.5zm186.45 113.49c-15.44,0.33 -29.97,1.33 -45.36,1.74 -18.33,0.49 -14.31,-1.58 -15.41,7.37 -0.81,6.52 -2.39,12.52 -5.23,17.71 -10.74,19.62 -44.52,26.86 -55.15,-3.84 -2.98,-8.62 -3.93,-32.73 -2.3,-43.29 2.16,-14.07 3.9,-24.77 12.51,-33.21 7.07,-6.93 19.66,-14.38 34.42,-10.07 12.26,3.58 15.68,15 15.8,29.98 9.56,-3.02 20.92,-5.15 30.86,-7.65 10.34,-2.59 19.78,-4.98 29.7,-7.65 -0.27,-10.73 -5.4,-24.37 -11.14,-32.11 -21.08,-28.39 -71.54,-21.71 -101.04,-13.13 -16.47,4.79 -30.17,11.59 -43.02,21.78 -21.22,16.82 -30.75,44.24 -31.17,75.25 -0.4,29.57 6.36,49.86 22.81,63.29 16.37,13.36 44.08,16.23 70.22,11.78 26.92,-4.57 43.61,-10.35 62.49,-23.35 17.35,-11.94 29.98,-32.3 31.01,-54.6zm539.51 -181.22c4.81,-0.24 30.61,-6.46 38.1,-7.81l12.46 -2.79 0.1 -51.99c-7.73,0.55 -15.08,2.76 -22.37,4.27l-64.02 14.05c-14.08,3.24 -29.02,6.07 -42.6,9.83 -6.57,1.82 -14.45,3.43 -21.34,4.85 -3.03,0.63 -7.37,1.54 -10.74,2.5 -1.91,0.54 -3.08,0.77 -5.47,1.22 -2.19,0.41 -2.65,0.36 -4.08,1.71 -1.36,2.27 -0.79,41.99 -0.42,48.28l57.05 -11.48c0.88,5.57 0.18,17.64 0.19,23.96 0.04,20.52 -0.83,163.95 0.36,168.1l62.78 0.34 0 -205.04zm-514.74 66.14c-0.74,6.65 -0.14,56.81 -0.14,68.14 -0.04,40.73 -8,81.99 43.75,92.71 19.49,4.04 43.08,2.7 62.29,-1.19 37.55,-7.6 67.08,-25.08 73.58,-62.67 2.28,-13.19 0.19,-115.98 0.97,-135.97l-60.47 14c0.76,28.74 0.13,58.39 0.12,87.22 -0.01,29.28 4.15,55.49 -24.67,62.66 -13.18,3.29 -26.5,0.09 -31.94,-10.11 -5.04,-9.47 -3.27,-27.36 -3.3,-40.09 -0.03,-16.76 0.97,-75 -0.04,-86.38l-60.15 11.68zm203.99 88.46c-0.56,9.27 4.84,23.37 8.99,29.59 16.94,25.43 54.76,30.36 85.84,28.01 43.26,-3.27 82.5,-18.87 84.79,-68.07 1.25,-26.88 -6.23,-42.41 -23.95,-52.86 -8.34,-4.91 -17.93,-7.14 -28.38,-9.54 -23.97,-5.51 -52.23,-1.16 -60.33,-16.46 -3.69,-6.96 -1.09,-15.84 4.15,-21.69 7.88,-8.78 45.1,-23.24 47.95,18.14 3.99,-0.67 11.05,-3.37 15.22,-4.76l29.77 -9.66c3.26,-1.08 11.47,-3.19 14.1,-4.8 -0.25,-21.12 -10.82,-37.42 -29.45,-46.59 -22.54,-11.1 -56.11,-2.94 -79.26,5.24 -13.39,4.73 -26.97,11.34 -37.3,19.84 -3.99,3.28 -11.27,10.36 -14.28,14.56 -20.71,28.95 -17.84,68.72 16.16,81.01 38.02,13.74 82.3,2.22 83.35,30.81 0.45,12.24 -5.62,19.95 -14.67,23.54 -9.91,3.92 -23.4,3.38 -31.2,-2.68 -7.95,-6.17 -9.61,-14.25 -10.46,-26.93 -1.22,-0.27 -57.78,11.74 -61.04,13.3zm435.85 -484.45c-4.63,7.02 -30.85,84.07 -33.74,94.75 -2.01,7.45 -4.15,12.46 -6.29,19.77l-10.95 41.07c-2.9,-1.37 -6.13,-13.67 -7.73,-18.25 -8.41,-24.11 -19.41,-50.5 -28.24,-73.97l-22.53 -55.1c-9.42,-0.23 -35.91,1.39 -49.17,1.53 -15.67,0.16 -36.18,1.37 -51.36,-0.04 0.72,3.19 4.7,10.81 6.41,14.15l13.35 27.93c5.76,11.41 13.44,29.8 19.57,42.81 15.8,33.54 29.88,65.95 45.79,99.72 2.29,4.86 4.48,9.02 6.71,14.26 2.53,5.95 11.94,24.63 13.1,28.91 9.2,-1.16 45.6,-9.68 58.52,-12.08 11.25,-2.09 24.07,-5.34 35.45,-7.07 2.4,-0.37 9.56,-1.58 11.64,-2.27 3.03,-1 4.35,-5.84 5.5,-8.84 7.46,-19.48 17.79,-42.05 24.27,-60.91 3.72,-10.82 18.81,-50.86 23.83,-60.77l44.03 -97.99c-4.61,-0.09 -60.58,8.51 -72.59,9.73 -8.21,0.83 -17.52,1.4 -25.57,2.66zm33.35 296.75c20.39,-5.17 31.92,15.18 35.49,31.01 8.08,35.77 15.21,159.59 -24.39,165.78 -11.33,1.77 -23.88,-4.29 -24.57,-9.18 -0.46,-3.26 0.78,-1.61 -1.17,-6.28l-4.16 -13c-0.53,-2.26 -1.16,-1.78 -1.87,-5.73l-5.79 -45.66c-0.69,-13.3 -0.36,-5.06 -1.49,-10.58l-0.78 -45.88c-0.18,-4.33 -1.04,-2.72 -1.28,-7.12 -0.7,-12.63 3.4,-30.42 10.29,-39.51 5.76,-7.61 9.07,-11.15 19.72,-13.85zm-93.06 48.72c1.72,0.93 -0.39,0.83 0.92,-0.22l0.02 -0.43c-0.19,38.15 1.09,85.82 9.29,118.87 7.79,31.42 22.87,59.51 52.56,75.38 21.36,11.41 54.76,16.57 78.65,5.46 7.15,-3.33 12.85,-7.19 19,-12.42 23.65,-20.08 34.59,-60.33 38.02,-89.8 5.71,-49.07 3.35,-136.2 -29.96,-174.14 -26.51,-30.19 -68.59,-35.44 -105.19,-18.12l-15.41 8.22c-26.41,16.17 -47.71,54.58 -47.9,87.2zm256.69 -234.22c0.41,-2.69 3.13,-8.46 4.33,-11.7l21.69 -59.98c2.02,-5.77 5.5,-21.17 7.63,-24.51 5.36,16.07 9.77,32.77 15.43,48.95 0.9,2.55 1.46,3.29 2.3,6.21l6.39 17.26c1.74,4.71 7.59,18.88 8.27,23.09l-66.04 0.68zm-128.99 97.15c7.81,-0.21 15.12,-1.33 22.45,-1.88 15.8,-1.16 30.96,-2.16 46.56,-2.3 7.07,-0.06 18.26,0.38 24.84,-0.5 1.19,-3.22 16.4,-43.98 17.78,-45.73 24.19,-1.49 50.8,0.74 74.7,1.63 7.87,0.29 18,0.1 25.39,1.2l17.19 52.29c3.27,1.68 20.56,3.27 25.93,4.18l51.08 10.71c5.16,1.39 20.36,6.18 24.02,6.56 -0.26,-2.82 -11.38,-34.33 -12.32,-36.75 -4.7,-12.16 -8.43,-24.56 -13.28,-36.55 -2.35,-5.82 -4.07,-11.87 -6.4,-17.86 -7.47,-19.17 -15.87,-45.03 -23.52,-62.93l-31.96 -80.07c-6.15,-14.88 -16.4,-40.65 -22.08,-52.8 -4.09,0.28 -38.79,9.93 -47.63,11.95l-61.7 13.69c-7.2,1.52 -6.76,-0.08 -9.11,5.94 -2.78,7.14 -5.95,14.07 -8.88,21.32 -13,32.08 -31.04,72.88 -45.69,104.32l-42.87 92.89c-1.18,2.53 -3.73,8.12 -4.5,10.69zm155.94 359.2c0.79,-35.5 -0.03,-71.81 0.07,-107.4l-0.3 -103.62c0.44,-3.16 -0.17,-1.38 1.15,-2.73 0.75,2.19 1.65,11.45 2.14,14.35l35.21 205.93c0.59,0.45 0.24,0.32 1.26,0.75l21.41 4.21c5.68,1.23 17.09,4.29 22.34,4.22 1.87,-15.57 7.03,-36.54 9.69,-53.58 2.75,-17.68 6.89,-35.4 9.73,-53.15 2.84,-17.7 6.2,-35.73 9.63,-53.06 2.94,-14.87 5.2,-31.92 7.84,-47.18 0.83,-4.8 0.69,-3.06 1.87,-6.19l-0.12 221.47c6.2,0.53 47.17,11.88 52.94,12.28l0.03 -331.51c-3.23,-0.84 -6.06,-1.88 -8.97,-2.77l-27.95 -7.43c-7.56,-1.77 -32.73,-7.78 -39.47,-7.94 -0.98,8.3 -3.28,18.14 -4.8,26.56 -1.71,9.44 -2.93,17.41 -4.39,26.44 -2.92,17.99 -6.49,34.92 -9.16,53.26 -1.2,8.26 -3.04,18.49 -4.84,26.62 -3,13.62 -11.75,76.05 -13.42,78.96 -1.78,-4.36 -3.63,-21.97 -4.67,-28.04 -1.6,-9.34 -3.07,-18.48 -4.53,-27.64 -2.98,-18.65 -5.78,-37.28 -9.25,-55.6 -3.41,-18.04 -5.98,-37.52 -9.16,-55.81 -3.16,-18.22 -6.6,-37.08 -9.32,-55.63 -12.38,-2.11 -67.4,-4.21 -78.42,-3.61l0.09 320.02c4.6,1.13 50.44,8.22 53.37,7.82zm-600.39 -513.46c10.87,-1.47 23.75,0.06 33.55,4.89 20.75,10.22 25.35,27.14 30.57,48.09 7.86,31.51 5.42,109.97 -27.25,131.52 -6.74,4.45 -10.18,7.05 -19.38,9.49 -26.47,7 -43.69,-1.85 -53.25,-20.82 -16.31,-32.38 -15.56,-101.29 -4.79,-135.6 2.68,-8.53 8.33,-19.63 14.16,-25.18 6.54,-6.23 14.47,-10.78 26.39,-12.39zm-23.9 -56.29c-6,0.7 -11.63,0.65 -17.76,1.55 -5.61,0.83 -11.4,1.99 -16.58,3.18 -81.72,18.79 -91.17,113.16 -85.86,186.21 3.41,46.89 19.42,87.08 48.89,107.85 35.81,25.25 87.51,18.09 127.94,4.63 29.96,-9.97 52.72,-19.97 76.94,-40.34 7.23,-6.07 13.62,-11.58 19.82,-19.54 15.12,-19.44 18.47,-25.09 27.78,-50.19 12.3,-33.19 11.03,-89.03 -7.88,-122.78 -8.41,-15.02 -18.86,-26.21 -32.33,-36.51 -2.98,-2.28 -8.34,-6.05 -11.83,-7.8 -32.44,-16.26 -54.84,-21.22 -92.01,-25.41 -10.04,-1.13 -27.31,-1.97 -37.12,-0.85z"/>
 </g>
</svg>
